<?xml version="1.0" encoding="UTF-8"?>
<svg xmlns="http://www.w3.org/2000/svg" xmlns:xlink="http://www.w3.org/1999/xlink" width="662pt" height="215.33pt" viewBox="0 0 662 215.33" version="1.1">
<g id="surface1">
<path style=" stroke:none;fill-rule:nonzero;fill:rgb(45.899963%,72.499084%,26.298523%);fill-opacity:1;" d="M 607.332031 214.664063 L 0 214.664063 L 0 -0.00390625 L 662 -0.00390625 Z M 607.332031 214.664063 "/>
<path style=" stroke:none;fill-rule:nonzero;fill:rgb(11.399841%,11.799622%,11.399841%);fill-opacity:1;" d="M 310.332031 -0.00390625 L 253.175781 214.664063 L 595.167969 214.664063 L 649.332031 -0.00390625 Z M 310.332031 -0.00390625 "/>
<path style=" stroke:none;fill-rule:nonzero;fill:rgb(100%,100%,100%);fill-opacity:1;" d="M 326.148438 65.203125 L 326.148438 39.171875 C 326.148438 37.363281 326.785156 35.824219 328.050781 34.546875 C 329.316406 33.273438 330.851563 32.636719 332.660156 32.636719 L 357.378906 32.636719 L 357.378906 39.5625 L 335.59375 39.5625 C 335.054688 39.5625 334.59375 39.757813 334.210938 40.148438 C 333.828125 40.539063 333.636719 40.996094 333.636719 41.515625 L 333.636719 62.800781 C 333.636719 63.339844 333.828125 63.796875 334.210938 64.171875 C 334.59375 64.542969 335.054688 64.726563 335.59375 64.726563 L 349.105469 64.726563 C 349.648438 64.726563 350.109375 64.542969 350.492188 64.171875 C 350.875 63.796875 351.066406 63.339844 351.066406 62.800781 L 351.066406 55.511719 L 341.734375 55.511719 L 341.734375 48.585938 L 358.664063 48.585938 L 358.664063 65.195313 C 358.664063 66.96875 358.023438 68.484375 356.753906 69.753906 C 355.476563 71.023438 353.9375 71.65625 352.128906 71.65625 L 332.652344 71.65625 C 330.847656 71.65625 329.3125 71.023438 328.046875 69.757813 C 326.785156 68.488281 326.148438 66.972656 326.148438 65.203125 "/>
<path style=" stroke:none;fill-rule:nonzero;fill:rgb(100%,100%,100%);fill-opacity:1;" d="M 366.121094 71.65625 L 366.121094 32.632813 L 393.464844 32.632813 L 393.464844 39.5625 L 373.71875 39.5625 L 373.71875 48.722656 L 389.582031 48.722656 L 389.582031 55.648438 L 373.71875 55.648438 L 373.71875 64.726563 L 393.464844 64.726563 L 393.464844 71.65625 "/>
<path style=" stroke:none;fill-rule:nonzero;fill:rgb(100%,100%,100%);fill-opacity:1;" d="M 398.886719 71.65625 L 398.886719 32.632813 L 426.230469 32.632813 L 426.230469 39.5625 L 406.484375 39.5625 L 406.484375 48.722656 L 422.347656 48.722656 L 422.347656 55.648438 L 406.484375 55.648438 L 406.484375 71.65625 "/>
<path style=" stroke:none;fill-rule:nonzero;fill:rgb(100%,100%,100%);fill-opacity:1;" d="M 438.574219 62.800781 C 438.574219 63.339844 438.765625 63.796875 439.148438 64.171875 C 439.53125 64.542969 439.992188 64.726563 440.53125 64.726563 L 454.046875 64.726563 C 454.589844 64.726563 455.050781 64.542969 455.433594 64.171875 C 455.8125 63.796875 456.003906 63.339844 456.003906 62.800781 L 456.003906 41.570313 C 456.003906 41.03125 455.8125 40.5625 455.433594 40.160156 C 455.050781 39.761719 454.589844 39.5625 454.046875 39.5625 L 440.53125 39.5625 C 439.992188 39.5625 439.53125 39.761719 439.148438 40.160156 C 438.765625 40.5625 438.574219 41.03125 438.574219 41.570313 Z M 431.089844 65.203125 L 431.089844 39.171875 C 431.089844 37.363281 431.722656 35.824219 432.984375 34.546875 C 434.25 33.273438 435.761719 32.632813 437.527344 32.632813 L 457.027344 32.632813 C 458.789063 32.632813 460.3125 33.273438 461.582031 34.546875 C 462.855469 35.824219 463.492188 37.363281 463.492188 39.171875 L 463.492188 65.203125 C 463.492188 66.988281 462.859375 68.511719 461.597656 69.769531 C 460.332031 71.027344 458.808594 71.65625 457.027344 71.65625 L 437.527344 71.65625 C 435.742188 71.65625 434.222656 71.027344 432.972656 69.769531 C 431.714844 68.511719 431.089844 66.988281 431.089844 65.203125 "/>
<path style=" stroke:none;fill-rule:nonzero;fill:rgb(100%,100%,100%);fill-opacity:1;" d="M 477.902344 48.835938 L 490.636719 48.835938 C 491.179688 48.835938 491.640625 48.644531 492.019531 48.261719 C 492.40625 47.882813 492.59375 47.421875 492.59375 46.878906 L 492.59375 41.574219 C 492.59375 41.03125 492.40625 40.5625 492.019531 40.160156 C 491.640625 39.761719 491.179688 39.5625 490.636719 39.5625 L 477.902344 39.5625 Z M 470.417969 71.65625 L 470.417969 32.636719 L 493.804688 32.636719 C 495.605469 32.636719 497.140625 33.273438 498.40625 34.546875 C 499.671875 35.824219 500.304688 37.363281 500.304688 39.171875 L 500.304688 49.226563 C 500.304688 51.03125 499.671875 52.574219 498.40625 53.847656 C 497.140625 55.125 495.605469 55.761719 493.796875 55.761719 L 493.320313 55.761719 L 502.875 71.65625 L 494.71875 71.65625 L 485.066406 55.761719 L 477.902344 55.761719 L 477.902344 71.65625 "/>
<path style=" stroke:none;fill-rule:nonzero;fill:rgb(100%,100%,100%);fill-opacity:1;" d="M 507.203125 65.203125 L 507.203125 39.171875 C 507.203125 37.363281 507.835938 35.824219 509.101563 34.546875 C 510.371094 33.273438 511.90625 32.636719 513.710938 32.636719 L 533.210938 32.636719 L 533.210938 39.5625 L 516.652344 39.5625 C 516.109375 39.5625 515.644531 39.757813 515.265625 40.148438 C 514.882813 40.539063 514.691406 40.996094 514.691406 41.515625 L 514.691406 62.800781 C 514.691406 63.339844 514.882813 63.796875 515.265625 64.171875 C 515.644531 64.542969 516.109375 64.726563 516.652344 64.726563 L 533.210938 64.726563 L 533.210938 71.65625 L 513.710938 71.65625 C 511.90625 71.65625 510.371094 71.023438 509.101563 69.757813 C 507.835938 68.488281 507.203125 66.972656 507.203125 65.203125 "/>
<path style=" stroke:none;fill-rule:nonzero;fill:rgb(100%,100%,100%);fill-opacity:1;" d="M 539.773438 71.65625 L 539.773438 32.632813 L 567.117188 32.632813 L 567.117188 39.5625 L 547.371094 39.5625 L 547.371094 48.722656 L 563.234375 48.722656 L 563.234375 55.648438 L 547.371094 55.648438 L 547.371094 64.726563 L 567.117188 64.726563 L 567.117188 71.65625 "/>
<path style=" stroke:none;fill-rule:nonzero;fill:rgb(100%,100%,100%);fill-opacity:1;" d="M 575.535156 36.660156 L 574.71875 36.660156 L 574.71875 35.121094 L 575.535156 35.121094 C 576.53125 35.121094 576.53125 35.691406 576.53125 35.878906 C 576.53125 36.070313 576.53125 36.660156 575.535156 36.660156 M 577.628906 35.878906 C 577.628906 34.734375 576.824219 34.023438 575.535156 34.023438 L 573.625 34.023438 L 573.625 39.199219 L 574.71875 39.199219 L 574.71875 37.757813 L 575.535156 37.757813 C 575.582031 37.757813 575.632813 37.757813 575.6875 37.753906 L 576.738281 39.199219 L 578.097656 39.199219 L 576.8125 37.4375 C 577.339844 37.109375 577.628906 36.558594 577.628906 35.878906 M 575.644531 40.503906 C 573.640625 40.503906 572.011719 38.871094 572.011719 36.867188 C 572.011719 34.863281 573.640625 33.234375 575.644531 33.234375 C 577.648438 33.234375 579.277344 34.863281 579.277344 36.867188 C 579.277344 38.871094 577.648438 40.503906 575.644531 40.503906 M 575.644531 32.636719 C 573.3125 32.636719 571.414063 34.53125 571.414063 36.863281 C 571.414063 39.195313 573.3125 41.09375 575.644531 41.09375 C 577.976563 41.09375 579.875 39.195313 579.875 36.863281 C 579.875 34.53125 577.976563 32.636719 575.644531 32.636719 "/>
<path style=" stroke:none;fill-rule:nonzero;fill:rgb(100%,100%,100%);fill-opacity:1;" d="M 344.089844 117.890625 L 374.597656 117.890625 C 375.894531 117.890625 377.007813 117.433594 377.921875 116.519531 C 378.839844 115.605469 379.296875 114.5 379.296875 113.207031 L 379.296875 100.488281 C 379.296875 99.195313 378.839844 98.066406 377.921875 97.109375 C 377.007813 96.148438 375.894531 95.671875 374.597656 95.671875 L 344.089844 95.671875 Z M 326.152344 172.574219 L 326.152344 79.070313 L 382.183594 79.070313 C 386.511719 79.070313 390.195313 80.597656 393.21875 83.65625 C 396.25 86.710938 397.769531 90.40625 397.769531 94.734375 L 397.769531 118.828125 C 397.769531 123.15625 396.25 126.851563 393.21875 129.90625 C 390.183594 132.960938 386.5 134.492188 382.171875 134.492188 L 381.035156 134.492188 L 403.925781 172.574219 L 384.382813 172.574219 L 361.257813 134.492188 L 344.089844 134.492188 L 344.089844 172.574219 "/>
<path style=" stroke:none;fill-rule:nonzero;fill:rgb(100%,100%,100%);fill-opacity:1;" d="M 410.820313 95.402344 L 410.820313 79.070313 L 482.574219 79.070313 L 482.574219 95.402344 L 455.800781 95.402344 L 455.800781 172.574219 L 437.59375 172.574219 L 437.59375 95.402344 "/>
<path style=" stroke:none;fill-rule:nonzero;fill:rgb(100%,100%,100%);fill-opacity:1;" d="M 487.257813 172.574219 L 518.246094 125.386719 L 489.066406 78.9375 L 511.019531 78.9375 L 529.492188 108.453125 L 548.300781 78.9375 L 568.449219 78.9375 L 538.929688 123.378906 L 570.054688 172.574219 L 548.167969 172.574219 L 527.820313 140.648438 L 507.273438 172.574219 "/>
<path style=" stroke:none;fill-rule:nonzero;fill:rgb(100%,100%,100%);fill-opacity:1;" d="M 223.566406 167.714844 L 223.566406 166.570313 L 224.300781 166.570313 C 224.703125 166.570313 225.25 166.601563 225.25 167.089844 C 225.25 167.621094 224.96875 167.714844 224.496094 167.714844 L 223.566406 167.714844 M 223.566406 168.523438 L 224.058594 168.523438 L 225.199219 170.523438 L 226.449219 170.523438 L 225.1875 168.4375 C 225.839844 168.390625 226.378906 168.082031 226.378906 167.203125 C 226.378906 166.109375 225.625 165.757813 224.347656 165.757813 L 222.503906 165.757813 L 222.503906 170.523438 L 223.566406 170.523438 L 223.566406 168.523438 M 228.921875 168.148438 C 228.921875 165.347656 226.75 163.726563 224.328125 163.726563 C 221.886719 163.726563 219.714844 165.347656 219.714844 168.148438 C 219.714844 170.945313 221.890625 172.574219 224.328125 172.574219 C 226.75 172.574219 228.921875 170.945313 228.921875 168.148438 M 227.597656 168.148438 C 227.597656 170.1875 226.097656 171.554688 224.328125 171.554688 L 224.328125 171.542969 C 222.503906 171.554688 221.035156 170.1875 221.035156 168.148438 C 221.035156 166.113281 222.503906 164.746094 224.328125 164.746094 C 226.101563 164.746094 227.597656 166.109375 227.597656 168.148438 "/>
<path style=" stroke:none;fill-rule:nonzero;fill:rgb(100%,100%,100%);fill-opacity:1;" d="M 113.265625 137.652344 L 113.269531 171.140625 L 122.726563 171.140625 L 122.726563 137.652344 Z M 38.867188 137.605469 L 38.867188 171.140625 L 48.40625 171.140625 L 48.40625 145.675781 L 55.800781 145.679688 C 58.25 145.679688 59.996094 146.289063 61.171875 147.546875 C 62.667969 149.140625 63.277344 151.714844 63.277344 156.414063 L 63.277344 171.140625 L 72.523438 171.140625 L 72.523438 152.613281 C 72.523438 139.390625 64.097656 137.605469 55.847656 137.605469 Z M 128.496094 137.652344 L 128.496094 171.140625 L 143.835938 171.140625 C 152.007813 171.140625 154.675781 169.78125 157.5625 166.734375 C 159.597656 164.59375 160.917969 159.898438 160.917969 154.765625 C 160.917969 150.054688 159.804688 145.859375 157.855469 143.242188 C 154.351563 138.566406 149.304688 137.652344 141.769531 137.652344 Z M 137.878906 144.945313 L 141.941406 144.945313 C 147.84375 144.945313 151.65625 147.59375 151.65625 154.464844 C 151.65625 161.34375 147.84375 163.992188 141.941406 163.992188 L 137.878906 163.992188 Z M 99.632813 137.652344 L 91.738281 164.191406 L 84.175781 137.65625 L 73.964844 137.652344 L 84.765625 171.140625 L 98.398438 171.140625 L 109.285156 137.652344 Z M 165.316406 171.140625 L 174.78125 171.140625 L 174.78125 137.65625 L 165.316406 137.652344 Z M 191.832031 137.664063 L 178.621094 171.128906 L 187.949219 171.128906 L 190.039063 165.214844 L 205.671875 165.214844 L 207.644531 171.128906 L 217.769531 171.128906 L 204.464844 137.660156 Z M 197.972656 143.769531 L 203.699219 159.449219 L 192.058594 159.449219 "/>
<path style=" stroke:none;fill-rule:nonzero;fill:rgb(100%,100%,100%);fill-opacity:1;" d="M 64.292969 70.976563 C 64.292969 70.976563 76.464844 53.019531 100.761719 51.164063 L 100.761719 44.648438 C 73.847656 46.808594 50.542969 69.605469 50.542969 69.605469 C 50.542969 69.605469 63.742188 107.761719 100.761719 111.257813 L 100.761719 104.332031 C 73.597656 100.914063 64.292969 70.976563 64.292969 70.976563 "/>
<path style=" stroke:none;fill-rule:nonzero;fill:rgb(100%,100%,100%);fill-opacity:1;" d="M 100.761719 90.5625 L 100.761719 96.90625 C 80.230469 93.246094 74.53125 71.902344 74.53125 71.902344 C 74.53125 71.902344 84.390625 60.980469 100.761719 59.210938 L 100.761719 66.167969 C 100.75 66.167969 100.742188 66.164063 100.730469 66.164063 C 92.136719 65.132813 85.425781 73.160156 85.425781 73.160156 C 85.425781 73.160156 89.1875 86.675781 100.761719 90.5625 "/>
<path style=" stroke:none;fill-rule:nonzero;fill:rgb(100%,100%,100%);fill-opacity:1;" d="M 100.761719 32.632813 L 100.761719 44.648438 C 101.554688 44.589844 102.34375 44.535156 103.136719 44.507813 C 133.734375 43.480469 153.671875 69.605469 153.671875 69.605469 C 153.671875 69.605469 130.773438 97.449219 106.917969 97.449219 C 104.730469 97.449219 102.683594 97.242188 100.761719 96.90625 L 100.761719 104.335938 C 102.40625 104.542969 104.109375 104.664063 105.890625 104.664063 C 128.089844 104.664063 144.140625 93.328125 159.6875 79.910156 C 162.265625 81.976563 172.816406 86.996094 174.984375 89.191406 C 160.203125 101.566406 125.757813 111.542969 106.230469 111.542969 C 104.347656 111.542969 102.539063 111.429688 100.761719 111.257813 L 100.761719 121.699219 L 185.140625 121.699219 L 185.140625 32.632813 "/>
<path style=" stroke:none;fill-rule:nonzero;fill:rgb(100%,100%,100%);fill-opacity:1;" d="M 100.761719 59.210938 L 100.761719 51.164063 C 101.542969 51.109375 102.332031 51.066406 103.136719 51.042969 C 125.140625 50.351563 139.574219 69.949219 139.574219 69.949219 C 139.574219 69.949219 123.984375 91.601563 107.265625 91.601563 C 104.859375 91.601563 102.703125 91.21875 100.761719 90.5625 L 100.761719 66.167969 C 109.328125 67.203125 111.050781 70.988281 116.199219 79.570313 L 127.65625 69.914063 C 127.65625 69.914063 119.292969 58.949219 105.199219 58.949219 C 103.667969 58.945313 102.199219 59.054688 100.761719 59.210938 "/>
</g>
</svg>
